<mxfile host="Electron" agent="Mozilla/5.0 (Windows NT 10.0; Win64; x64) AppleWebKit/537.36 (KHTML, like Gecko) draw.io/24.7.17 Chrome/128.0.6613.36 Electron/32.0.1 Safari/537.36" version="24.7.17">
  <diagram name="Page-1" id="R_CbZ2hIV8ocycgOnomv">
    <mxGraphModel dx="1088" dy="1376" grid="1" gridSize="10" guides="1" tooltips="1" connect="1" arrows="1" fold="1" page="1" pageScale="1" pageWidth="1000" pageHeight="1000" math="0" shadow="0">
      <root>
        <mxCell id="0" />
        <mxCell id="1" parent="0" />
        <mxCell id="rnEuQdMATz-5SOlpjBVA-1" value="ECS Fargate Cluster" style="rounded=0;whiteSpace=wrap;html=1;fillColor=none;dashed=1;strokeWidth=1.1811;fontStyle=1;fontSize=14;verticalAlign=top;spacing=1.9685;" vertex="1" parent="1">
          <mxGeometry x="40" y="40" width="520" height="280" as="geometry" />
        </mxCell>
        <mxCell id="rnEuQdMATz-5SOlpjBVA-2" value="&lt;span style=&quot;color: rgb(0, 0, 0); font-family: Helvetica; font-size: 14px; font-style: normal; font-variant-ligatures: normal; font-variant-caps: normal; font-weight: 700; letter-spacing: normal; orphans: 2; text-align: center; text-indent: 0px; text-transform: none; widows: 2; word-spacing: 0px; -webkit-text-stroke-width: 0px; white-space: normal; background-color: rgb(251, 251, 251); text-decoration-thickness: initial; text-decoration-style: initial; text-decoration-color: initial; float: none; display: inline !important;&quot;&gt;ECS Service&lt;/span&gt;&lt;div style=&quot;font-size: 14px;&quot;&gt;&lt;br style=&quot;font-size: 14px;&quot;&gt;&lt;/div&gt;" style="rounded=0;whiteSpace=wrap;html=1;strokeWidth=1.1811;verticalAlign=top;fontSize=14;dashed=1;dashPattern=8 8;fillColor=none;" vertex="1" parent="1">
          <mxGeometry x="80" y="80" width="440" height="200" as="geometry" />
        </mxCell>
        <mxCell id="rnEuQdMATz-5SOlpjBVA-3" value="&lt;div style=&quot;font-size: 14px;&quot;&gt;&lt;b&gt;ECS Container Instance&lt;/b&gt;&lt;/div&gt;" style="rounded=0;whiteSpace=wrap;html=1;strokeWidth=1.1811;verticalAlign=top;fontSize=14;fillColor=none;" vertex="1" parent="1">
          <mxGeometry x="120" y="120" width="360" height="120" as="geometry" />
        </mxCell>
        <mxCell id="rnEuQdMATz-5SOlpjBVA-5" value="" style="group" vertex="1" connectable="0" parent="1">
          <mxGeometry x="160" y="160" width="40" height="70" as="geometry" />
        </mxCell>
        <mxCell id="rnEuQdMATz-5SOlpjBVA-6" value="" style="rounded=1;whiteSpace=wrap;html=1;strokeWidth=3.1496;" vertex="1" parent="rnEuQdMATz-5SOlpjBVA-5">
          <mxGeometry width="40" height="40" as="geometry" />
        </mxCell>
        <mxCell id="rnEuQdMATz-5SOlpjBVA-7" value="Task" style="text;html=1;align=center;verticalAlign=middle;whiteSpace=wrap;rounded=0;fontStyle=1;fontSize=14;" vertex="1" parent="rnEuQdMATz-5SOlpjBVA-5">
          <mxGeometry y="40" width="40" height="30" as="geometry" />
        </mxCell>
        <mxCell id="rnEuQdMATz-5SOlpjBVA-8" value="" style="group" vertex="1" connectable="0" parent="1">
          <mxGeometry x="240" y="160" width="40" height="70" as="geometry" />
        </mxCell>
        <mxCell id="rnEuQdMATz-5SOlpjBVA-9" value="" style="rounded=1;whiteSpace=wrap;html=1;strokeWidth=3.1496;" vertex="1" parent="rnEuQdMATz-5SOlpjBVA-8">
          <mxGeometry width="40" height="40" as="geometry" />
        </mxCell>
        <mxCell id="rnEuQdMATz-5SOlpjBVA-10" value="Task" style="text;html=1;align=center;verticalAlign=middle;whiteSpace=wrap;rounded=0;fontStyle=1;fontSize=14;" vertex="1" parent="rnEuQdMATz-5SOlpjBVA-8">
          <mxGeometry y="40" width="40" height="30" as="geometry" />
        </mxCell>
        <mxCell id="rnEuQdMATz-5SOlpjBVA-11" value="" style="group" vertex="1" connectable="0" parent="1">
          <mxGeometry x="320" y="160" width="40" height="70" as="geometry" />
        </mxCell>
        <mxCell id="rnEuQdMATz-5SOlpjBVA-12" value="" style="rounded=1;whiteSpace=wrap;html=1;strokeWidth=3.1496;" vertex="1" parent="rnEuQdMATz-5SOlpjBVA-11">
          <mxGeometry width="40" height="40" as="geometry" />
        </mxCell>
        <mxCell id="rnEuQdMATz-5SOlpjBVA-13" value="Task" style="text;html=1;align=center;verticalAlign=middle;whiteSpace=wrap;rounded=0;fontStyle=1;fontSize=14;" vertex="1" parent="rnEuQdMATz-5SOlpjBVA-11">
          <mxGeometry y="40" width="40" height="30" as="geometry" />
        </mxCell>
        <mxCell id="rnEuQdMATz-5SOlpjBVA-14" value="" style="group" vertex="1" connectable="0" parent="1">
          <mxGeometry x="400" y="160" width="40" height="70" as="geometry" />
        </mxCell>
        <mxCell id="rnEuQdMATz-5SOlpjBVA-15" value="" style="rounded=1;whiteSpace=wrap;html=1;strokeWidth=3.1496;" vertex="1" parent="rnEuQdMATz-5SOlpjBVA-14">
          <mxGeometry width="40" height="40" as="geometry" />
        </mxCell>
        <mxCell id="rnEuQdMATz-5SOlpjBVA-16" value="Task" style="text;html=1;align=center;verticalAlign=middle;whiteSpace=wrap;rounded=0;fontStyle=1;fontSize=14;" vertex="1" parent="rnEuQdMATz-5SOlpjBVA-14">
          <mxGeometry y="40" width="40" height="30" as="geometry" />
        </mxCell>
      </root>
    </mxGraphModel>
  </diagram>
</mxfile>
